<svg fill="currentColor" height="16" viewBox="0 0 16 16" width="16" xmlns="http://www.w3.org/2000/svg" xmlns:xlink="http://www.w3.org/1999/xlink"><clipPath id="a"><path d="m0 0h16v16h-16z"/></clipPath><g clip-path="url(#a)"><path d="m10.6667 14.6667v-2.58c.025-.3179-.0179-.6375-.126-.9375-.108-.3-.2787-.5736-.5007-.8025 2.0934-.2334 4.2934-1.0267 4.2934-4.6667-.0002-.93078-.3582-1.82587-1-2.5.3039-.81433.2824-1.71443-.06-2.513334 0 0-.7867-.233334-2.6067.986664-1.52799-.41412-3.13867-.41412-4.66666 0-1.82-1.219998-2.60667-.986664-2.60667-.986664-.34241.798904-.3639 1.699004-.06 2.513334-.64658.67913-1.00498 1.58231-1 2.52 0 3.61333 2.2 4.4067 4.29334 4.6667-.21934.2266-.38849.4969-.49646.7932-.10797.2964-.15234.6121-.13021.9268v2.58m0-2c-3.33333 1-3.33333-1.6667-4.66667-2z" stroke="#000" stroke-linecap="round" stroke-linejoin="round" stroke-width="1.33333"/></g></svg>